/* XPM */
static char *chratos64_png[] = {
/* columns rows colors chars-per-pixel */
"64 64 123 2 ",
"   c #00006A",
".  c #000073",
"X  c #000C73",
"o  c #00017B",
"O  c #001873",
"+  c #002472",
"@  c #002778",
"#  c #002B7C",
"$  c #00347C",
"%  c #003B7E",
"&  c #133C77",
"*  c #173E7A",
"=  c #25437A",
"-  c #2F497C",
";  c #3B507F",
":  c #000081",
">  c #002B84",
",  c #003283",
"<  c #00328A",
"1  c #003E8D",
"2  c #003C92",
"3  c #00438E",
"4  c #114388",
"5  c #1F4B90",
"6  c #254885",
"7  c #3C578D",
"8  c #2F5293",
"9  c #355392",
"0  c #3C5893",
"q  c #455781",
"w  c #455D96",
"e  c #495E90",
"r  c #415D99",
"t  c #526084",
"y  c #4D659E",
"u  c #53689C",
"i  c #5C6F9F",
"p  c #606A87",
"a  c #646E8B",
"s  c #67718D",
"d  c #6D7794",
"f  c #727A92",
"g  c #737D9C",
"h  c #566CA2",
"j  c #5B70A4",
"k  c #6977A4",
"l  c #6578A7",
"z  c #707FAC",
"x  c #7C8296",
"c  c #7D859D",
"v  c #7381A6",
"b  c #7A84A5",
"n  c #7583A9",
"m  c #7A87AC",
"M  c #7987B0",
"N  c #7D8BB2",
"B  c #858B9D",
"V  c #8A8F9F",
"C  c #8B909F",
"Z  c #868FAC",
"A  c #9195A3",
"S  c #9699A6",
"D  c #9096A9",
"F  c #9599A8",
"G  c #838FB5",
"H  c #8491B4",
"J  c #8A94B4",
"K  c #8C97BA",
"L  c #8E99BA",
"P  c #959DB5",
"I  c #99A1BC",
"U  c #A5A9B4",
"Y  c #ABADB4",
"T  c #A4AABE",
"R  c #AEB0B7",
"E  c #B3B5BA",
"W  c #96A0C0",
"Q  c #9AA3C1",
"!  c #A4ACC4",
"~  c #A8AFC3",
"^  c #A6AEC8",
"/  c #AEB3C5",
"(  c #ACB3CA",
")  c #B3B6C3",
"_  c #BABDC7",
"`  c #B1B6C9",
"'  c #B4BACD",
"]  c #BBBFCB",
"[  c #B9BFD4",
"{  c #BDC2D4",
"}  c #C4C5C7",
"|  c #C5C7CA",
" . c #CBCBCD",
".. c #C5C8D4",
"X. c #CCCDD0",
"o. c #C0C6D8",
"O. c #C6CADA",
"+. c #CACEDA",
"@. c #CED1DD",
"#. c #D0D1D2",
"$. c #D3D6DF",
"%. c #DBDCDC",
"&. c #E0DFDD",
"*. c #E1E0DF",
"=. c #D2D6E2",
"-. c #D5D9E5",
";. c #DADDE4",
":. c #DCDFE9",
">. c #DFE2EC",
",. c #E3E3E3",
"<. c #E8E8E7",
"1. c #E2E5ED",
"2. c #E7E9EF",
"3. c #F0EFEE",
"4. c #F1F1EE",
"5. c #EBEDF2",
"6. c #EFF1F5",
"7. c #F4F4F5",
"8. c #F8F7F5",
"9. c #FAF9F6",
"0. c #F5F6F9",
"q. c #F7F8FB",
"w. c #FFFFFF",
/* pixels */
"w.w.w.w.w.w.w.w.w.w.w.w.w.w.w.w.w.w.w.w.w.w.w.w.w.w.w.w.w.w.w.w.w.w.w.w.w.w.w.w.w.w.w.w.w.w.w.w.w.w.w.w.w.w.w.w.w.w.w.w.w.w.w.w.",
"w.w.w.w.w.w.w.w.w.w.w.w.w.w.w.w.w.w.w.w.w.w.w.w.w.w.w.w.w.w.w.w.w.w.w.w.w.w.w.w.w.w.w.w.w.w.w.w.w.w.w.w.w.w.w.w.w.w.w.w.w.w.w.w.",
"w.w.w.w.w.w.w.w.w.w.w.w.w.w.w.w.w.w.w.w.w.w.w.w.w.w.w.w.w.w.w.w.w.w.w.w.w.w.w.w.w.w.w.w.w.w.w.w.w.w.w.w.w.w.w.w.w.w.w.w.w.w.w.w.",
"w.w.w.w.w.w.w.w.w.w.w.w.w.w.w.w.w.w.w.w.w.w.w.w.w.w.w.w.w.w.w.w.w.w.w.w.w.w.w.w.w.w.w.w.w.w.w.w.w.w.w.w.w.w.w.w.w.w.w.w.w.w.w.w.",
"w.w.w.w.w.w.w.w.w.w.w.w.w.w.w.w.w.w.w.w.w.w.w.w.w.w.w.w.w.w.w.w.w.w.w.w.w.w.w.w.w.w.w.w.w.w.w.w.w.w.w.w.w.w.w.w.w.w.w.w.w.w.w.w.",
"w.w.w.w.w.w.w.w.w.w.w.w.w.w.w.w.w.w.w.w.w.w.w.w.w.w.w.w.w.w.w.w.w.w.w.w.w.w.w.w.w.w.w.w.w.w.w.w.w.w.w.w.w.w.w.w.w.w.w.w.w.w.w.w.",
"w.w.w.w.w.w.w.w.w.w.w.w.w.w.w.w.w.w.w.w.w.w.w.w.w.w.w.w.w.w.w.w.w.w.w.w.w.w.w.w.w.w.w.w.w.w.w.w.w.w.w.w.w.w.w.w.w.w.w.w.w.w.w.w.",
"w.w.w.w.w.w.w.w.w.w.w.w.w.w.w.w.w.w.w.w.w.w.w.w.w.w.w.w.w.w.w.w.w.w.w.w.w.w.w.w.w.w.w.w.w.w.w.w.w.w.w.w.w.w.w.w.w.w.w.w.w.w.w.w.",
"w.w.w.w.w.w.w.w.w.w.w.w.w.w.w.w.w.w.w.w.w.w.w.w.w.w.w.w.w.w.w.w.w.w.w.w.w.w.w.w.w.w.w.w.w.w.w.w.w.w.w.w.w.w.w.w.w.w.w.w.w.w.w.w.",
"w.w.w.w.w.w.w.w.w.w.w.w.w.w.w.w.w.w.w.w.w.w.w.w.w.w.w.w.w.w.w.w.w.w.w.w.w.w.w.w.w.w.w.w.w.w.w.w.w.w.w.w.w.w.w.w.w.w.w.w.w.w.w.w.",
"w.w.w.w.w.w.w.w.w.w.w.w.w.w.w.w.w.w.w.w.w.w.w.w.w.w.w.w.w.w.w.w.w.w.w.w.w.w.w.w.w.w.w.w.w.w.w.w.w.w.w.w.w.w.w.w.w.w.w.w.w.w.w.w.",
"w.w.w.w.w.w.w.w.w.w.w.w.w.w.w.w.w.w.w.w.w.w.w.w.w.w.w.w.w.w.w.w.w.w.w.w.w.w.w.w.w.w.w.w.w.w.w.w.w.w.w.w.w.w.w.w.w.w.w.w.w.w.w.w.",
"w.w.w.w.w.w.w.w.w.w.w.w.w.w.w.w.w.w.w.w.w.w.w.w.w.w.w.w.w.w.w.w.w.w.w.w.w.w.w.w.w.w.w.w.w.w.w.w.w.w.w.w.w.w.w.w.w.w.w.w.w.w.w.w.",
"w.w.w.w.w.w.w.w.w.w.w.w.w.w.w.w.w.w.w.w.w.w.w.w.w.w.w.w.w.w.w.w.w.w.w.w.w.w.w.w.w.w.w.w.w.w.w.w.w.w.w.w.w.w.w.w.w.w.w.w.w.w.w.w.",
"w.w.w.w.w.w.w.w.w.w.w.w.w.w.w.w.w.w.w.w.w.w.w.w.w.w.w.w.w.w.w.w.w.w.w.w.w.w.w.w.w.w.w.w.w.w.w.w.w.w.w.w.w.w.w.w.w.w.w.w.w.w.w.w.",
"w.w.w.w.w.w.w.w.w.w.w.w.w.w.w.w.w.w.w.w.w.w.w.w.w.w.w.w.w.w.w.U ( w.w.w.w.w.w.w.w.w.w.w.w.w.w.w.w.w.w.w.w.w.w.w.w.w.w.w.w.w.w.w.",
"w.w.w.w.w.w.w.w.w.w.w.w.w.w.w.w.w.w.w.w.w.w.w.w.w.w.w.w.w.w.,.. 2 1.w.w.w.w.w.w.w.w.w.w.w.w.w.w.w.w.w.w.w.w.w.w.w.w.w.w.w.w.w.w.",
"w.w.w.w.w.w.w.w.w.w.w.w.w.w.w.w.w.w.w.w.w.w.w.w.w.w.w.w.w.w.f m d G w.w.w.w.w.w.w.w.w.w.w.w.w.w.w.w.w.w.w.w.w.w.w.w.w.w.w.w.w.w.",
"w.w.w.w.w.w.w.w.w.w.w.w.w.w.w.w.w.w.w.w.w.w.w.w.w.w.w.w.w. .. 5.&.. =.w.w.w.w.w.w.w.w.w.w.w.w.w.w.w.w.w.w.w.w.w.w.w.w.w.w.w.w.w.",
"w.w.w.w.w.w.w.w.w.w.w.w.w.w.w.w.w.w.w.w.w.w.w.w.w.w.w.w.7.; Q w.w.C h w.w.w.w.w.w.w.w.w.w.w.w.w.w.w.w.w.w.w.w.w.w.w.w.w.w.w.w.w.",
"w.w.w.w.w.w.w.w.w.w.w.w.w.w.w.w.w.w.w.w.w.w.w.w.w.w.w.w.E < 5.w.w.<.. { w.w.w.w.w.w.w.w.w.w.w.w.w.w.w.w.w.w.w.w.w.w.w.w.w.w.w.w.",
"w.w.w.w.w.w.w.w.w.w.w.w.w.w.w.w.w.w.w.w.w.w.w.w.w.w.w.<.X [ w.w.w.w.R 1 0.w.w.w.w.w.w.w.w.w.w.w.w.w.w.w.w.w.w.w.w.w.w.w.w.w.w.w.",
"w.w.w.w.w.w.w.w.w.w.w.w.w.w.w.w.w.w.w.w.w.w.w.w.w.w.w.A y w.w.w.w.w.8.- Q w.w.w.w.w.w.w.w.w.w.w.w.w.w.w.w.w.w.w.w.w.w.w.w.w.w.w.",
"w.w.w.w.w.w.w.w.w.w.w.w.w.w.w.w.w.w.w.w.w.w.w.w.w.w.%.  =.w.w.w.w.w.w. .o 1.w.w.w.w.w.w.w.w.w.w.w.w.w.w.w.w.w.w.w.w.w.w.w.w.w.w.",
"w.w.w.w.w.w.w.w.w.w.w.w.w.w.w.w.w.w.w.w.w.w.w.w.w.w.s N w.w.w.w.w.w.w.w.s N w.w.w.w.w.w.w.w.w.w.w.w.w.w.w.w.w.w.w.w.w.w.w.w.w.w.",
"w.w.w.w.w.w.w.w.w.w.w.w.w.w.w.w.w.w.w.w.w.w.w.w.w.} o 2.w.w.w.w.w.w.w.w.%.  =.w.w.w.w.w.w.w.w.w.w.w.w.w.w.w.w.w.w.w.w.w.w.w.w.w.",
"w.w.w.w.w.w.w.w.w.w.w.w.w.w.w.w.w.w.w.w.w.w.w.w.7.= ! w.w.w.w.w.w.w.w.w.w.S r w.w.w.w.w.w.w.w.w.w.w.w.w.w.w.w.w.w.w.w.w.w.w.w.w.",
"w.w.w.w.w.w.w.w.w.w.w.w.w.w.w.w.w.w.w.w.w.w.w.w.Y 3 7.w.w.w.w.w.w.w.w.w.w.<.O [ w.w.w.w.w.w.w.w.w.w.w.w.w.w.w.w.w.w.w.w.w.w.w.w.",
"w.w.w.w.w.w.w.w.w.w.w.w.w.w.w.w.w.w.w.w.w.w.w.<.. o.w.w.w.w.w.w.w.w.w.w.w.w.E > 5.w.w.w.w.w.w.w.w.w.w.w.w.w.w.w.w.w.w.w.w.w.w.w.",
"w.w.w.w.w.w.w.w.w.w.w.w.w.w.w.w.w.w.w.w.w.w.w.B j w.w.w.w.w.w.w.w.w.w.w.w.w.w.q W w.w.w.w.w.w.w.w.w.w.w.w.w.w.w.w.w.w.w.w.w.w.w.",
"w.w.w.w.w.w.w.w.w.w.w.w.w.w.w.w.w.w.w.w.w.w.%.. -.w.w.w.w.w.w.w.w.w.w.w.w.w.w. .. 1.w.w.w.w.w.w.w.w.w.w.w.w.w.w.w.w.w.w.w.w.w.w.",
"w.w.w.w.w.w.w.w.w.w.w.w.w.w.w.w.w.w.w.w.w.7.= G w.w.w.w.w.w.w.w.w.w.w.w.w.w.w.w.f y q.w.w.w.w.w.w.w.w.w.w.w.w.w.w.w.w.w.w.w.w.w.",
"w.w.w.w.w.w.w.w.w.w.w.w.w.w.w.w.w.w.w.w.w.4.T 0.w.w.w.w.w.w.9.w.w.w.w.w.w.w.w.w.3.T w.w.w.w.w.w.w.w.w.w.w.w.w.w.w.w.w.w.w.w.w.w.",
"w.w.w.w.w.<./ ! -.w.w.w.<.+.w.w.,.$.w.w.w.;.+.{ o.6.w.w.w.w.w.>./ w.w.w.w.q.| [ +.+.o.8.w.w.w.<.o.o.<.w.w.w.w.w...T O.7.w.w.w.w.",
"w.w.w.w.%.$ K T # ' w.w.X.> q.w.Y w w.w.w.f r / b w <.w.w.w.w.x . =.w.w.w.9.) P o J ` 7.w.w.%.$ G Z < @.w.w.w.E 0 ' e ! w.w.w.w.",
"w.w.w.w.a W w.w.<.5.w.w.X.e 0.w.Y l w.w.w.f / w.4.  O.w.w.w.| 9 D u w.w.w.w.w.4.% 5.w.w.w.9.q ! w.w.E 3 0.w.w.x z w.w.w.w.w.w.w.",
"w.w.w.7.* =.w.w.w.w.w.w.#., n n e z w.w.w.B y I v n 7.w.w.9.& ` 9.+ [ w.w.w.w.,.$ >.w.w.w.<.$ 2.w.w.<.# 1.w.w.<.g 5 M >.w.w.w.w.",
"w.w.w.w.t ! w.w.8.7.w.w.#.7 <.w.U k w.w.w.c H _ . -.w.w.w.R i w.w. .4 0.w.w.w.<., 1.w.w.w.8.- ' w.w.| > 0.w.w.8.w.w.F 0 w.w.w.w.",
"w.w.w.w. .o ~ o.6 ^ w.w. .@ w.w.Y 9 w.w.w.p I w.Y : 1.w.,.  H ..{ ] . K w.w.w.<.  >.w.w.w.w.} o Q I @ { w.w.w.x l @.c n w.w.w.w.",
"w.w.w.w.w.%.P L O.w.w.w.<.' w.w.%.+.w.w.w...=.w.w.) ;.w.,./ ` I ! ~ ` ] w.w.w.7.) 7.w.w.w.w.w.>.T / :.w.w.w.w.6.) H ^ 7.w.w.w.w.",
"w.w.w.w.w.w.w.w.w.w.w.w.w.w.w.w.7.] 5.w.w.w.w.w.w.w.w.w.w.w.w.w.w.w.w.w.w.w.w.w.w.w.w.w.w.<.) w.w.w.w.w.w.w.w.w.w.w.w.w.w.w.w.w.",
"w.w.w.w.w.w.w.w.w.w.w.w.w.w.w.w.F < 0.w.w.w.w.w.w.w.w.w.w.w.w.w.w.w.w.w.w.w.w.w.w.w.w.w.w.<.  ^ w.w.w.w.w.w.w.w.w.w.w.w.w.w.w.w.",
"w.w.w.w.w.w.w.w.w.w.w.w.w.w.w.*.. =.w.w.w.w.w.w.w.w.w.w.w.w.w.w.w.w.w.w.w.w.w.w.w.w.w.w.w.w. .o 1.w.w.w.w.w.w.w.w.w.w.w.w.w.w.w.",
"w.w.w.w.w.w.w.w.w.w.w.w.w.w.w.s m w.w.w.w.w.w.w.w.w.w.w.w.w.w.w.w.w.w.w.w.w.w.w.w.w.w.w.w.w.w.t G w.w.w.w.w.w.w.w.w.w.w.w.w.w.w.",
"w.w.w.w.w.w.w.w.w.w.w.w.w.w. .o 1.w.w.w.w.w.w.w.w.w.w.w.w.w.w.w.w.w.w.w.w.w.w.w.w.w.w.w.w.w.w.%.. -.w.w.w.w.w.w.w.w.w.w.w.w.w.w.",
"w.w.w.w.w.w.w.w.w.w.w.w.w.9.- W w.q.w.w.w.w.w.w.w.w.w.q.w.w.w.w.w.w.w.w.w.w.w.w.w.w.w.w.q.w.w.w.V y w.w.w.w.w.w.w.w.w.w.w.w.w.w.",
"w.w.w.w.w.w.w.w.w.w.w.w.w.R 8 w.w.w.w.w.w.w.w.w.w.w.w.w.w.w.w.w.w.w.w.w.w.w.w.w.w.w.w.w.w.w.w.w.7.$ { w.w.w.w.w.w.w.w.w.w.w.w.w.",
"w.w.w.w.w.w.w.w.w.w.w.w.,.  L ;.@.$.$.$.$.$.$.@.$.$.$.$.$.$.$.$.@.$.$.$.@.$.$.$.@.$.$.$.$.$.$.@.;.c < 5.w.w.w.w.w.w.w.w.w.w.w.w.",
"w.w.w.w.w.w.w.w.w.w.w.w.| v H v n n n n n n n n n n n n n n n n n n n n n n n n n n n n n n n n v H v @.w.w.w.w.w.w.w.w.w.w.w.w.",
"w.w.w.w.w.w.w.w.w.w.w.w.w.w.w.w.w.w.w.w.w.w.w.w.w.w.w.w.w.w.w.w.w.w.w.w.w.w.w.w.w.w.w.w.w.w.w.w.w.w.w.w.w.w.w.w.w.w.w.w.w.w.w.w.",
"w.w.w.w.w.w.w.w.w.w.w.w.w.w.w.w.w.w.w.w.w.w.w.w.w.w.w.w.w.w.w.w.w.w.w.w.w.w.w.w.w.w.w.w.w.w.w.w.w.w.w.w.w.w.w.w.w.w.w.w.w.w.w.w.",
"w.w.w.w.w.w.w.w.w.w.w.w.w.w.w.w.w.w.w.w.w.w.w.w.w.w.w.w.w.w.w.w.w.w.w.w.w.w.w.w.w.w.w.w.w.w.w.w.w.w.w.w.w.w.w.w.w.w.w.w.w.w.w.w.",
"w.w.w.w.w.w.w.w.w.w.w.w.w.w.w.w.w.w.w.w.w.w.w.w.w.w.w.w.w.w.w.w.w.w.w.w.w.w.w.w.w.w.w.w.w.w.w.w.w.w.w.w.w.w.w.w.w.w.w.w.w.w.w.w.",
"w.w.w.w.w.w.w.w.w.w.w.w.w.w.w.w.w.w.w.w.w.w.w.w.w.w.w.w.w.w.w.w.w.w.w.w.w.w.w.w.w.w.w.w.w.w.w.w.w.w.w.w.w.w.w.w.w.w.w.w.w.w.w.w.",
"w.w.w.w.w.w.w.w.w.w.w.w.w.w.w.w.w.w.w.w.w.w.w.w.w.w.w.w.w.w.w.w.w.w.w.w.w.w.w.w.w.w.w.w.w.w.w.w.w.w.w.w.w.w.w.w.w.w.w.w.w.w.w.w.",
"w.w.w.w.w.w.w.w.w.w.w.w.w.w.w.w.w.w.w.w.w.w.w.w.w.w.w.w.w.w.w.w.w.w.w.w.w.w.w.w.w.w.w.w.w.w.w.w.w.w.w.w.w.w.w.w.w.w.w.w.w.w.w.w.",
"w.w.w.w.w.w.w.w.w.w.w.w.w.w.w.w.w.w.w.w.w.w.w.w.w.w.w.w.w.w.w.w.w.w.w.w.w.w.w.w.w.w.w.w.w.w.w.w.w.w.w.w.w.w.w.w.w.w.w.w.w.w.w.w.",
"w.w.w.w.w.w.w.w.w.w.w.w.w.w.w.w.w.w.w.w.w.w.w.w.w.w.w.w.w.w.w.w.w.w.w.w.w.w.w.w.w.w.w.w.w.w.w.w.w.w.w.w.w.w.w.w.w.w.w.w.w.w.w.w.",
"w.w.w.w.w.w.w.w.w.w.w.w.w.w.w.w.w.w.w.w.w.w.w.w.w.w.w.w.w.w.w.w.w.w.w.w.w.w.w.w.w.w.w.w.w.w.w.w.w.w.w.w.w.w.w.w.w.w.w.w.w.w.w.w.",
"w.w.w.w.w.w.w.w.w.w.w.w.w.w.w.w.w.w.w.w.w.w.w.w.w.w.w.w.w.w.w.w.w.w.w.w.w.w.w.w.w.w.w.w.w.w.w.w.w.w.w.w.w.w.w.w.w.w.w.w.w.w.w.w.",
"w.w.w.w.w.w.w.w.w.w.w.w.w.w.w.w.w.w.w.w.w.w.w.w.w.w.w.w.w.w.w.w.w.w.w.w.w.w.w.w.w.w.w.w.w.w.w.w.w.w.w.w.w.w.w.w.w.w.w.w.w.w.w.w.",
"w.w.w.w.w.w.w.w.w.w.w.w.w.w.w.w.w.w.w.w.w.w.w.w.w.w.w.w.w.w.w.w.w.w.w.w.w.w.w.w.w.w.w.w.w.w.w.w.w.w.w.w.w.w.w.w.w.w.w.w.w.w.w.w.",
"w.w.w.w.w.w.w.w.w.w.w.w.w.w.w.w.w.w.w.w.w.w.w.w.w.w.w.w.w.w.w.w.w.w.w.w.w.w.w.w.w.w.w.w.w.w.w.w.w.w.w.w.w.w.w.w.w.w.w.w.w.w.w.w.",
"w.w.w.w.w.w.w.w.w.w.w.w.w.w.w.w.w.w.w.w.w.w.w.w.w.w.w.w.w.w.w.w.w.w.w.w.w.w.w.w.w.w.w.w.w.w.w.w.w.w.w.w.w.w.w.w.w.w.w.w.w.w.w.w."
};
