/* XPM */
static char *chratos_png[] = {
/* columns rows colors chars-per-pixel */
"31 31 180 2 ",
"   c #6E7B9F",
".  c #7E89AA",
"X  c #999FB5",
"o  c #A5AABD",
"O  c #A8ADBD",
"+  c #A8ADBF",
"@  c #A5ABC0",
"#  c #A7ADC2",
"$  c #A8AEC0",
"%  c #A9AFC0",
"&  c #AAAFC2",
"*  c #AFB3C4",
"=  c #B0B5C4",
"-  c #B3B7C5",
";  c #B1B6C7",
":  c #B2B6C6",
">  c #B2B7C6",
",  c #B3B7C7",
"<  c #B4B9C6",
"1  c #B4B8C7",
"2  c #B5B8C7",
"3  c #B6BAC7",
"4  c #B3B9CB",
"5  c #B5B9C8",
"6  c #B4B8C9",
"7  c #B5B9C9",
"8  c #B5BAC9",
"9  c #B6BAC8",
"0  c #B6BACA",
"q  c #B9BCCA",
"w  c #B8BCCB",
"e  c #BABECA",
"r  c #B9BDCC",
"t  c #B9BDCD",
"y  c #BABECC",
"u  c #BBBECC",
"i  c #BBBFCD",
"p  c #BCC0CC",
"a  c #BCC0CF",
"s  c #BDC1CF",
"d  c #BDC1D0",
"f  c #BEC2D0",
"g  c #C0C4CE",
"h  c #C2C5D1",
"j  c #C1C5D2",
"k  c #C0C5D3",
"l  c #C2C5D2",
"z  c #C3C6D3",
"x  c #C2C7D5",
"c  c #C5C8D2",
"v  c #C6C9D2",
"b  c #C6C9D3",
"n  c #C4C8D4",
"m  c #C4C8D5",
"M  c #C7CAD6",
"N  c #C9CBD4",
"B  c #CBCDD6",
"V  c #CACDD7",
"C  c #CBCED6",
"Z  c #CACDD8",
"A  c #CBCFDA",
"S  c #CBCFDB",
"D  c #CCCFD9",
"F  c #CCCFDB",
"G  c #CED1D8",
"H  c #CED1D9",
"J  c #CFD1D9",
"K  c #CDD0DB",
"L  c #CED1DC",
"P  c #CED2DC",
"I  c #CED2DD",
"U  c #D0D2DB",
"Y  c #D1D3DB",
"T  c #D2D4DC",
"R  c #D3D5DD",
"E  c #D4D7DF",
"W  c #D5D8DE",
"Q  c #D7D9DF",
"!  c #D2D5E0",
"~  c #D5D7E0",
"^  c #D5D8E1",
"/  c #D8DAE0",
"(  c #D9DBE1",
")  c #DADBE1",
"_  c #D8DAE2",
"`  c #D8DAE3",
"'  c #DCDDE3",
"]  c #D9DBE4",
"[  c #D9DCE4",
"{  c #DDDEE4",
"}  c #DDDFE6",
"|  c #DDDFE7",
" . c #DFE0E4",
".. c #E3E4E7",
"X. c #E1E3E9",
"o. c #E1E3EA",
"O. c #E3E5EA",
"+. c #E2E4EB",
"@. c #E4E6EA",
"#. c #E4E6EB",
"$. c #E6E7EB",
"%. c #E4E5EC",
"&. c #E5E7EC",
"*. c #E6E7ED",
"=. c #E7E8EA",
"-. c #E6E8ED",
";. c #E8E9EB",
":. c #E9EAEC",
">. c #E8E9EE",
",. c #E8E9EF",
"<. c #E9EAEF",
"1. c #E9EBEF",
"2. c #EAEBEF",
"3. c #EBECEE",
"4. c #ECECEE",
"5. c #ECECEF",
"6. c #EDEDEF",
"7. c #EBECF1",
"8. c #EBEDF1",
"9. c #ECECF1",
"0. c #ECEDF1",
"q. c #EEEEF0",
"w. c #EEEFF0",
"e. c #EEEEF1",
"r. c #EFEFF1",
"t. c #ECEDF2",
"y. c #EDEEF2",
"u. c #EEEFF2",
"i. c #EFF0F4",
"p. c #F0F1F2",
"a. c #F1F1F2",
"s. c #F1F2F3",
"d. c #F3F3F4",
"f. c #F2F3F5",
"g. c #F2F3F6",
"h. c #F3F3F6",
"j. c #F3F4F4",
"k. c #F3F4F5",
"l. c #F3F4F6",
"z. c #F4F4F5",
"x. c #F4F5F5",
"c. c #F5F5F6",
"v. c #F4F4F7",
"b. c #F4F5F7",
"n. c #F5F5F7",
"m. c #F6F6F6",
"M. c #F6F6F7",
"N. c #F5F5F8",
"B. c #F5F6F8",
"V. c #F6F6F8",
"C. c #F6F6F9",
"Z. c #F6F7F9",
"A. c #F7F7F9",
"S. c #F8F8F8",
"D. c #F8F8F9",
"F. c #F9F9F9",
"G. c #F8F8FA",
"H. c #F8F9FA",
"J. c #F9F9FA",
"K. c #F8F9FB",
"L. c #F9F9FB",
"P. c #F9FAFA",
"I. c #FAFAFB",
"U. c #FBFBFB",
"Y. c #FAFAFC",
"T. c #FBFBFC",
"R. c gray99",
"E. c #FCFDFC",
"W. c #FCFCFD",
"Q. c #FCFDFD",
"!. c #FDFDFD",
"~. c #FEFEFD",
"^. c #FDFDFE",
"/. c #FEFDFE",
"(. c #FDFEFE",
"). c #FEFEFE",
"_. c #FFFFFE",
"`. c #FEFEFF",
"'. c #FEFFFF",
"]. c white",
/* pixels */
"].].].].].].].].].].].].].].].].].].].].].].].].].].].].].].].",
"].].].].].].].].].].].].].].].].].].].].].].].].].].].].].].].",
"].].].].].].].].].].].].].].].].].].].].].].].].].].].].].].].",
"].].].].].].].].].].].].].].].].].].].].].].].].].].].].].].].",
"].].].].].].].].].].].].].].].).].].].].].].].].].].].].].].].",
"].].].].].].].].].].].].].].).).).].].].].].].].].].].].].].].",
"].].].].].].].].].].].].].).).].).).].].].].].].].].].].].].].",
"].].].].].].].].].].].].^.].q.V i.].).].].].].].].].].].].].].",
"].].].].].].].].].].].).).].C   L ].^.`.].].].].].].].].].].].",
"].].].].].].].].].].].!.]. .i { y +.].^.].].].].].].].].].].].",
"].].].].].].].].].].).].U.p K ].N f ^.].).].].].].].].].].].].",
"].].].].].].].].].].!.].W , C.].x.> ` ].!.].].].].].].].].].].",
"].].].].].].].].].^.].d.9 [ ].R.].Q w N.].(.].].].].].].].].].",
"].].`.^.`.].).].).^.].B 0 `.).!.).R.1 K ].(.'.).).].].).).].].",
"].).].].].`.].].^.].;.2 ,.].!.].!.].=.7 7.].!.].].).].].].].].",
").].!.u.L.)./.].!.]./ M ].].).).!.!.E.b ~ ].].h.T.].].A.v.).].",
"].U.T k %.k.) $.' S.J d _ (.a.5 o.].@.; ! '...z K I.w.8 ] `.].",
"].:.o >.B.3.O @ 6 m.< . d T.Y X l G.p.+ | ~.% ~ - } q.$ a K.].",
"].s.q Z <.r.g D U M.v & ^ 5.* s & ` _.c -.].H n r <.j.u # b.].",
"].].e.` y.P.D.z.R Z.n.k.k.l.#.&.X.g.).u.H.!.( E t.].D.O.*.W.].",
"].].].].].].].G a ].].].].].].].].].).].].!.e ` ].).].].].].].",
"].].).).Q.].6.- i.].].].].].].].].].].].].].4.: u.].!.).).].].",
"].].].).].F.3 4 A.1.7.0.8.0.8.8.0.0.8.9.7.2.V.= t Y.].).].].].",
"].].].).].c.h x P A F F F F S F S F F F F A I j m V.].).].].].",
"].].].].].).J.n.f.l.l.l.h.l.h.h.h.l.l.l.l.l.f.B.J.).].].].].].",
"].].].].].].].].].].].].].].].].].].].].].].].].].].].].].].].",
"].].].].].].).).).).).).).).).).).).).).).).).).).].].].].].].",
"].].].].].].].].].].].].].].].].].].].].].].].].].].].].].].].",
"].].].].].].].].].].].].].].].].].].].].].].].].].].].].].].].",
"].].].].].].].].].].].].].].].].].].].].].].].].].].].].].].].",
"].].].].].].].].].].].].].].].].].].].].].].].].].].].].].].]."
};
