/* XPM */
static char *chratos32_png[] = {
/* columns rows colors chars-per-pixel */
"32 32 149 2 ",
"   c #7783A7",
".  c #858DA6",
"X  c #828DAC",
"o  c #858EAC",
"O  c #8892AF",
"+  c #8B94AE",
"@  c #8C94AF",
"#  c #8C96B5",
"$  c #9299B0",
"%  c #939AB3",
"&  c #979EB3",
"*  c #939BB4",
"=  c #949CB5",
"-  c #949CB7",
";  c #959DB7",
":  c #989EB2",
">  c #989FB4",
",  c #9AA0B5",
"<  c #99A0B7",
"1  c #9DA2B5",
"2  c #9EA3B6",
"3  c #9EA3B7",
"4  c #9FA4B7",
"5  c #9AA1B8",
"6  c #9FA5BA",
"7  c #9CA4BE",
"8  c #A0A6B7",
"9  c #A7ACBB",
"0  c #A1A8BF",
"q  c #A2A9BF",
"w  c #A4AABE",
"e  c #A7ACBE",
"r  c #A8ADBE",
"t  c #ADB0BE",
"y  c #A3A9C0",
"u  c #A4AAC0",
"i  c #ABB0C2",
"p  c #AEB4C6",
"a  c #AEB4C8",
"s  c #B2B6C3",
"d  c #B4B8C4",
"f  c #B2B7C8",
"g  c #B3B8CA",
"h  c #B4B9CA",
"j  c #B4BACB",
"k  c #B7BCCD",
"l  c #BABECB",
"z  c #BABECE",
"x  c #BABFD0",
"c  c #BDC0CA",
"v  c #BDC0CE",
"b  c #BDC0CF",
"n  c #BEC1CF",
"m  c #C2C5CE",
"M  c #C0C4D1",
"N  c #C1C5D3",
"B  c #C2C6D2",
"V  c #C4C7D0",
"C  c #C7C9D1",
"Z  c #C5C8D2",
"A  c #C7CAD3",
"S  c #C4C8D4",
"D  c #C6CAD7",
"F  c #C7CAD7",
"G  c #C9CCD3",
"H  c #C9CBD4",
"J  c #CBCDD4",
"K  c #CCCED6",
"L  c #CDCFD6",
"P  c #C7CBD8",
"I  c #C9CDD9",
"U  c #CACED9",
"Y  c #CACEDA",
"T  c #CBCEDA",
"R  c #CBCFDB",
"E  c #CBCFDC",
"W  c #CCCFDC",
"Q  c #D2D4D9",
"!  c #D3D5DB",
"~  c #D0D3DD",
"^  c #D3D6DF",
"/  c #D7D8DC",
"(  c #D7D8DD",
")  c #D8D9DE",
"_  c #D7D9E0",
"`  c #D7DAE4",
"'  c #D9DBE3",
"]  c #DCDDE1",
"[  c #DDDEE2",
"{  c #D8DBE4",
"}  c #D9DCE4",
"|  c #DBDEE7",
" . c #DDDEE5",
".. c #DFE1E8",
"X. c #E0E1E7",
"o. c #E0E2EA",
"O. c #E2E3EA",
"+. c #E2E4EA",
"@. c #E3E4EA",
"#. c #E4E6EC",
"$. c #E7E8EA",
"%. c #E6E8EC",
"&. c #E7E8EE",
"*. c #EAEBEC",
"=. c #EAEBED",
"-. c #EBECED",
";. c #ECECED",
":. c #EDEDEF",
">. c #EEEEEF",
",. c #ECEDF1",
"<. c #ECEDF2",
"1. c #ECEDF3",
"2. c #EDEEF2",
"3. c #EEEFF4",
"4. c #EFF0F4",
"5. c #F0F0F2",
"6. c #F0F1F2",
"7. c #F0F0F3",
"8. c gray95",
"9. c #F3F3F4",
"0. c #F3F4F7",
"q. c #F4F4F4",
"w. c #F6F6F7",
"e. c #F9F8F7",
"r. c #F3F4F8",
"t. c #F4F5F8",
"y. c #F7F7F8",
"u. c #F6F6F9",
"i. c #F7F8FA",
"p. c #F8F8F8",
"a. c #FAF9F8",
"s. c #FAFBFB",
"d. c #FCFCFB",
"f. c #FBFBFD",
"g. c #FBFCFD",
"h. c gray99",
"j. c #FDFDFC",
"k. c #FCFCFD",
"l. c #FDFDFD",
"z. c #FFFEFD",
"x. c #FCFCFE",
"c. c #FDFDFE",
"v. c #FDFDFF",
"b. c #FDFEFE",
"n. c #FEFEFE",
"m. c #FFFFFE",
"M. c #FEFEFF",
"N. c #FEFFFF",
"B. c white",
/* pixels */
"B.B.B.B.B.B.B.B.B.B.B.B.B.B.B.B.B.B.B.B.B.B.B.B.B.B.B.B.B.B.B.B.",
"B.B.B.B.B.B.B.B.B.B.B.B.B.B.B.B.B.B.B.B.B.B.B.B.B.B.B.B.B.B.B.B.",
"B.B.B.B.B.B.B.B.B.B.B.B.B.B.B.B.B.B.B.B.B.B.B.B.B.B.B.B.B.B.B.B.",
"B.B.B.B.B.B.B.B.B.B.B.B.B.B.B.B.B.B.B.B.B.B.B.B.B.B.B.B.B.B.B.B.",
"B.B.B.B.B.B.B.B.B.B.B.B.B.B.B.B.B.B.B.B.B.B.B.B.B.B.B.B.B.B.B.B.",
"B.B.B.B.B.B.B.B.B.B.B.B.B.B.B.n.n.B.B.B.B.B.B.B.B.B.B.B.B.B.B.B.",
"B.B.B.B.B.B.B.B.B.B.B.B.B.B.n.B.B.n.B.B.B.B.B.B.B.B.B.B.B.B.B.B.",
"B.B.B.B.B.B.B.B.B.B.B.B.B.n.B.=.,.B.n.B.B.B.B.B.B.B.B.B.B.B.B.B.",
"B.B.B.B.B.B.B.B.B.B.B.B.B.M.B.. # B.n.B.B.B.B.B.B.B.B.B.B.B.B.B.",
"B.B.B.B.B.B.B.B.B.B.B.B.l.B.C N c E B.c.B.B.B.B.B.B.B.B.B.B.B.B.",
"B.B.B.B.B.B.B.B.B.B.B.m.B.p.+ v.a.@ f.B.B.B.B.B.B.B.B.B.B.B.B.B.",
"B.B.B.B.B.B.B.B.B.B.B.l.B.s W B.B.C k B.l.B.B.B.B.B.B.B.B.B.B.B.",
"B.B.B.B.B.B.B.B.B.B.n.B.*.= B.n.B.B.$ 3.B.n.B.B.B.B.B.B.B.B.B.B.",
"B.B.B.B.B.B.B.B.B.B.c.B.2 o.B.n.c.B.] q B.l.B.B.B.B.B.B.B.B.B.B.",
"B.B.B.c.M.B.n.B.n.l.B.( u B.l.B.n.c.B.4 | B.b.B.n.B.B.B.n.n.B.B.",
"B.n.B.B.B.M.B.B.B.B.j., u.B.n.B.B.l.B.q.5 B.n.B.B.B.n.B.B.B.B.B.",
"n.B.p.^ <.B.7.B.5.B.:.b 4.B.B.w.2.B.s.%.n #.B.p.' i.B.l.X.&.B.B.",
"B.j.r P ~ B.9 @.3 M.J h 6 #.B.t   B.B.A - r.d.e F w B./ X { B.M.",
"B.8.% B.y.B.8 j o B.G O ; M.[ f L z B.;.i B.-.* B.: 1.9.v p g.B.",
"n.B.K y D B.V s.H M.)  .Z t.m a B 0 B.>.S B.B.! q I B.$.f g c.B.",
"B.B.B.k.B.B.B.B.l 0.B.B.B.n.B.n.k.B.M.B.B.B.6.M B.B.B.B.h.B.B.B.",
"B.B.n.B.n.l.B.Q q B.k.c.l.n.n.n.N.b.n.n.c.l.B.1 ` B.c.n.B.n.B.B.",
"B.B.B.B.B.B.z.> x.B.B.B.B.B.B.B.B.B.B.B.B.B.B.e.< B.B.B.B.B.B.B.",
"B.B.B.B.c.B.d 7 ,...+.O.+.+.+.+.+.+.+.+.O.+...,.& x B.c.B.B.B.B.",
"B.B.B.B.N.B._ R U Y Y Y Y Y Y Y Y Y Y Y Y Y Y Y T } B.M.B.B.B.B.",
"B.B.B.B.B.B.B.B.B.B.B.B.B.B.B.B.B.B.B.B.B.B.B.B.B.B.B.B.B.B.B.B.",
"B.B.B.B.B.B.n.c.c.c.c.c.c.c.c.c.c.c.c.c.c.c.c.c.c.n.B.B.B.B.B.B.",
"B.B.B.B.B.B.B.B.B.B.B.B.B.B.B.B.B.B.B.B.B.B.B.B.B.B.B.B.B.B.B.B.",
"B.B.B.B.B.B.B.B.B.B.B.B.B.B.B.B.B.B.B.B.B.B.B.B.B.B.B.B.B.B.B.B.",
"B.B.B.B.B.B.B.B.B.B.B.B.B.B.B.B.B.B.B.B.B.B.B.B.B.B.B.B.B.B.B.B.",
"B.B.B.B.B.B.B.B.B.B.B.B.B.B.B.B.B.B.B.B.B.B.B.B.B.B.B.B.B.B.B.B.",
"B.B.B.B.B.B.B.B.B.B.B.B.B.B.B.B.B.B.B.B.B.B.B.B.B.B.B.B.B.B.B.B."
};
