/* XPM */
static char *chratos16_png[] = {
/* columns rows colors chars-per-pixel */
"16 16 63 1 ",
"  c #BCC0CF",
". c #BFC3D1",
"X c #C2C6D2",
"o c #C5C9D5",
"O c #C7CAD4",
"+ c #C7CAD6",
"@ c #C8CBD4",
"# c #C8CBD5",
"$ c #C9CCD7",
"% c #CACDD7",
"& c #CBCED7",
"* c #C9CDD8",
"= c #CBCED8",
"- c #D1D3DD",
"; c #D2D5DE",
": c #D3D6DF",
"> c #D7D9E1",
", c #D8DAE1",
"< c #DADCE3",
"1 c #DCDDE3",
"2 c #E0E1E6",
"3 c #E1E2E7",
"4 c #E1E2E8",
"5 c #E2E3E8",
"6 c #E2E3E9",
"7 c #E3E5EA",
"8 c #E2E4EB",
"9 c #E3E5EB",
"0 c #E5E6EA",
"q c #E5E6EB",
"w c #E7E8EB",
"e c #E8E9ED",
"r c #E8E9EE",
"t c #E8EAEE",
"y c #E9EAEE",
"u c #E8EAEF",
"i c #E9EAEF",
"p c #E9EBEF",
"a c #EAEBEF",
"s c #EAECEF",
"d c #EBECEF",
"f c #ECECEF",
"g c #EBECF0",
"h c #EDEEF0",
"j c #EEEEF1",
"k c #EEEFF2",
"l c #EFEFF2",
"z c #EFF0F3",
"x c #F0F1F4",
"c c #F1F2F4",
"v c #F1F2F5",
"b c #F5F5F6",
"n c #F8F8F8",
"m c #F9F9FA",
"M c #FAFBFC",
"N c #FBFBFC",
"B c #FBFCFC",
"V c #FDFDFC",
"C c #FEFEFE",
"Z c #FFFEFE",
"A c #FEFEFF",
"S c #FEFFFF",
"D c white",
/* pixels */
"DDDDDDDDDDDDDDDD",
"DDDDDDDDDDDDDDDD",
"DDDDDDADDADDDDDD",
"DDDDDDDmmDDDDDDD",
"DDDDDCD@*DCDDDDD",
"DDDDCDw42rDCDDDD",
"DCDCDC%AV=DZCCCD",
"DDDDD5iDD04DDDDD",
"N,c1aO8fqh-j>k:D",
"n$lO<#;&.de3+y M",
"DNDb7DDDDDD5xDBD",
"SDDX9xkzzkv6oDDD",
"DDCsprutturpgADD",
"DDDDDDDDDDDDDDDD",
"DDDCCCCCCCCCCDDD",
"DDDDDDDDDDDDDDDD"
};
